:FULLY-SPECIFIED
:FORCE-ALL-JOINTS-BE-3DOF
:DEGREES
1
root 7.46593 15.9937 -36.7321 7.11356 1.31487 -3.66776
lfemur -40.6897 6.42258 -16.3516
ltibia 43.9106 0 0
lfoot -14.6186 8.34667 0
ltoes -11.8487 0 0
rfemur -9.89801 4.72659 30.1099
rtibia 24.1198 0 0
rfoot 0 0 0
rtoes 0 0 0
lowerback -4.29912 0.189404 0.939401
upperback -1.51886 0.185188 2.55702
thorax 0.845091 0.0960327 2.10705
lowerneck -18.6579 -5.17414 -13.3376
upperneck 13.6797 -6.63107 16.9236
head 8.38994 -2.28192 7.17028
lclavicle 6.33626e-15 1.59028e-14 0
lhumerus -35.9267 -2.97855 86.2544
lradius 27.4056 0 0
lwrist 7.30557 0 0
lhand -13.3003 -23.0211 0
lfingers 7.12502 0 0
lthumb 12.8038 6.56624 0
rclavicle 6.33626e-15 1.59028e-14 0
rhumerus -38.7688 17.4551 -84.1031
rradius 56.1989 0 0
rwrist -28.5696 0 0
rhand -33.2015 -25.7513 0
rfingers 7.12502 0 0
rthumb -6.4087 -55.6344 0
2
root 7.46812 15.9958 -36.6628 7.06629 1.24578 -3.57237
lfemur -40.7308 6.28439 -16.4728
ltibia 42.4672 0 0
lfoot -14.5076 7.96262 0
ltoes -11.6919 0 0
rfemur -9.51687 4.85523 30.0329
rtibia 24.0526 0 0
rfoot 2.14528 0.212062 0
rtoes 0.73908 0 0
lowerback -4.30661 0.176671 0.841919
upperback -1.53853 0.174121 2.51624
thorax 0.828977 0.0904956 2.11785
lowerneck -18.4486 -5.08151 -13.3723
upperneck 13.6134 -6.52264 17.0051
head 8.31629 -2.23491 7.21899
lclavicle 5.53685e-15 6.15822e-15 0
lhumerus -35.9303 -2.96471 86.348
lradius 27.3307 0 0
lwrist 7.23985 0 0
lhand -13.3711 -23.2154 0
lfingers 7.12502 0 0
lthumb 12.7359 6.38159 0
rclavicle 5.53685e-15 6.15822e-15 0
rhumerus -38.7879 17.5671 -84.1669
rradius 56.6088 0 0
rwrist -29.6427 0 0
rhand -32.8004 -26.4494 0
rfingers 7.12502 0 0
rthumb -6.02143 -56.3425 0
3
root 7.47752 15.9948 -36.484 7.00688 0.898736 -3.54368
lfemur -40.7479 5.80028 -16.1863
ltibia 39.6689 0 0
lfoot -14.3839 7.87688 0
ltoes -11.7779 0 0
rfemur -8.33059 5.06727 29.9987
rtibia 23.2909 0 0
rfoot 2.2883 0.2262 0
rtoes 0.788352 0 0
lowerback -4.42592 0.209678 0.775428
upperback -1.52566 0.21813 2.49085
thorax 0.907233 0.112247 2.13226
lowerneck -18.3648 -4.98957 -13.2654
upperneck 13.7106 -6.43232 16.9418
head 8.31161 -2.19447 7.19284
lclavicle 4.2083e-15 -3.66643e-15 0
lhumerus -36.1631 -3.25589 86.646
lradius 27.4558 0 0
lwrist 7.16679 0 0
lhand -13.0208 -23.3196 0
lfingers 7.12502 0 0
lthumb 13.0735 6.2553 0
rclavicle 4.2083e-15 -3.66643e-15 0
rhumerus -38.8947 17.7659 -84.4323
rradius 57.3612 0 0
rwrist -31.0215 0 0
rhand -32.3158 -27.33 0
rfingers 7.12502 0 0
rthumb -5.55362 -57.2351 0
4
root 7.49009 15.992 -36.2606 6.94636 0.428373 -3.55542
lfemur -40.7499 5.16774 -15.6975
ltibia 36.3764 0 0
lfoot -14.265 7.96784 0
ltoes -11.9926 0 0
rfemur -6.8046 5.30586 29.9919
rtibia 22.2108 0 0
rfoot 1.28717 0.127238 0
rtoes 0.443448 0 0
lowerback -4.59681 0.265312 0.732867
upperback -1.49567 0.28897 2.47662
thorax 1.03119 0.147297 2.1473
lowerneck -18.3599 -4.90692 -13.0889
upperneck 13.8907 -6.36096 16.8028
head 8.34632 -2.16166 7.12696
lclavicle 2.70961e-15 -1.25855e-14 0
lhumerus -36.5027 -3.69109 87.0305
lradius 27.6819 0 0
lwrist 7.09665 0 0
lhand -12.4668 -23.3627 0
lfingers 7.12502 0 0
lthumb 13.6073 6.17419 0
rclavicle 2.70961e-15 -1.25855e-14 0
rhumerus -39.0407 17.9943 -84.7858
rradius 58.2341 0 0
rwrist -32.4395 0 0
rhand -31.8311 -28.2283 0
rfingers 7.12502 0 0
rthumb -5.08563 -58.1454 0
5
root 7.50176 15.9891 -36.0578 6.89576 -0.0106856 -3.58132
lfemur -40.7454 4.58426 -15.2115
ltibia 33.4508 0 0
lfoot -14.1684 8.11389 0
ltoes -12.222 0 0
rfemur -5.40433 5.51417 29.9972
rtibia 21.1885 0 0
rfoot 3.33067e-16 3.46945e-17 0
rtoes 1.11022e-16 0 0
lowerback -4.75904 0.320459 0.707174
upperback -1.46397 0.358399 2.46928
thorax 1.15217 0.181659 2.16002
lowerneck -18.3874 -4.84215 -12.9148
upperneck 14.0731 -6.30942 16.6574
head 8.39084 -2.13752 7.05649
lclavicle 1.39978e-15 -1.96134e-14 0
lhumerus -36.8268 -4.10928 87.3837
lradius 27.9095 0 0
lwrist 7.03971 0 0
lhand -11.9262 -23.374 0
lfingers 7.12502 0 0
lthumb 14.1282 6.12505 0
rclavicle 1.39978e-15 -1.96134e-14 0
rhumerus -39.1774 18.1955 -85.1139
rradius 59.0055 0 0
rwrist -33.63 0 0
rhand -31.4294 -28.9797 0
rfingers 7.12502 0 0
rthumb -4.69778 -58.9068 0
6
root 7.5085 15.9874 -35.9404 6.86615 -0.263812 -3.59511
lfemur -40.7434 4.24734 -14.9336
ltibia 31.7528 0 0
lfoot -14.1116 8.19341 0
ltoes -12.3521 0 0
rfemur -4.59519 5.63537 29.9994
rtibia 20.6002 0 0
rfoot -0.715094 -0.0706875 0
rtoes -0.24636 0 0
lowerback -4.85236 0.352006 0.691288
upperback -1.44598 0.398173 2.46459
thorax 1.22152 0.201343 2.16745
lowerneck -18.4008 -4.80386 -12.8151
upperneck 14.1772 -6.27855 16.5747
head 8.41557 -2.12311 7.01655
lclavicle 6.37811e-16 -2.37644e-14 0
lhumerus -37.0131 -4.34946 87.5878
lradius 28.0395 0 0
lwrist 7.00623 0 0
lhand -11.6163 -23.3827 0
lfingers 7.12502 0 0
lthumb 14.4267 6.09468 0
rclavicle 6.37811e-16 -2.37644e-14 0
rhumerus -39.2562 18.3124 -85.3031
rradius 59.4535 0 0
rwrist -34.3266 0 0
rhand -31.1939 -29.4195 0
rfingers 7.12502 0 0
rthumb -4.47043 -59.3525 0
